<svg id="Layer_1" data-name="Layer 1" xmlns="http://www.w3.org/2000/svg" xmlns:xlink="http://www.w3.org/1999/xlink" viewBox="0 0 121.3808 168.2886"><defs><style>.cls-1{fill:none;}.cls-2{clip-path:url(#clip-path);}.cls-3{clip-path:url(#clip-path-2);}.cls-4{fill:#fff;}.cls-5{fill:#ff97c4;}</style><clipPath id="clip-path"><rect class="cls-1" width="121.3808" height="168.2886"/></clipPath><clipPath id="clip-path-2"><rect class="cls-1" x="-13.0645" y="-0.0611" width="134.4453" height="168.3496"/></clipPath></defs><title>aikataulu1_1</title><g class="cls-2"><g class="cls-3"><g id="Group_8" data-name="Group 8"><g id="Ellipse_1" data-name="Ellipse 1"><circle class="cls-4" cx="65.3869" cy="56.0017" r="43.6007"/><path class="cls-5" d="M65.3872,101.1025A45.1008,45.1008,0,1,1,110.4877,56.002,45.1519,45.1519,0,0,1,65.3872,101.1025Zm0-87.2016A42.1008,42.1008,0,1,0,107.4877,56.002,42.1484,42.1484,0,0,0,65.3872,13.9009Z"/></g><g id="Path_16" data-name="Path 16"><path class="cls-4" d="M65.3245,1.5a54.5019,54.5019,0,1,0,54.5563,54.5018A54.4757,54.4757,0,0,0,65.3245,1.5Zm.0544,98.1045A43.58,43.58,0,0,1,21.7762,56.0462v-.0424A43.58,43.58,0,0,1,65.3344,12.4011h.0445a43.58,43.58,0,0,1,43.6006,43.56v.0424a43.58,43.58,0,0,1-43.56,43.6006h-.04Z"/><path class="cls-5" d="M65.3471,112.0034h-.0229A56.0017,56.0017,0,0,1,65.3237,0h.0234a56.0017,56.0017,0,1,1,0,112.0034ZM65.3256,3a53.0017,53.0017,0,0,0,0,106.0034h.0215A53.0017,53.0017,0,1,0,65.3471,3h-.0215Zm.0308,98.1045a45.1018,45.1018,0,0,1-.023-90.2036h.0206a45.1018,45.1018,0,1,1,.0659,90.2036l-.041-1.5.0009,1.5Zm.0425-87.2036h-.02a42.1018,42.1018,0,0,0-.0229,84.2036h.0308a42.1018,42.1018,0,0,0,.0117-84.2036Z"/></g><g id="Path_17" data-name="Path 17"><path class="cls-4" d="M68.1127,28.7518H59.9373V61.4533L88.5512,78.6212l4.0877-6.7045L68.1127,57.3657Z"/><path class="cls-5" d="M89.0566,80.6738,58.4375,62.3022V27.252H69.6127v29.26L94.71,71.4009ZM61.4375,60.604,88.0459,76.5684l2.5219-4.1363L66.6127,58.22V30.252H61.4375Z"/></g><g id="Path_18" data-name="Path 18"><path class="cls-4" d="M61.8036,131.159,46.4026,108.86a7.5186,7.5186,0,0,0-2.2416-1.91l-3.5546-1.9628,15.49-28.0613a8.016,8.016,0,0,0-14.029-7.7518L14.3258,119.4083.1459,107.1874a9.2974,9.2974,0,0,0-1.0455-.76,5.9781,5.9781,0,0,0-4.5479-.4957L-11.21,107.633-.8595,143.5a8.04,8.04,0,0,0,3.8211,4.7958l31.7628,17.5359A7.784,7.784,0,0,0,44.7733,163.57l17.1131-22.7227A7.6829,7.6829,0,0,0,61.8036,131.159Z"/><path class="cls-5" d="M38.458,168.2886a9.2491,9.2491,0,0,1-4.4546-1.1411L2.2363,149.6089A9.48,9.48,0,0,1-2.3,143.9175l-10.7642-37.3013,7.1924-2.1235a7.4368,7.4368,0,0,1,5.6933.6191,10.7747,10.7747,0,0,1,1.2886.9268l12.7959,11.0273L40.7539,68.4492a9.5158,9.5158,0,0,1,16.67,9.1734l-14.78,26.7763,2.2417,1.2383a8.9728,8.9728,0,0,1,2.6938,2.2935l15.4224,22.3252a9.2222,9.2222,0,0,1,.0566,11.5273l-17.0874,22.69A9.2647,9.2647,0,0,1,38.458,168.2886ZM-9.3555,108.6494.582,143.0845a6.498,6.498,0,0,0,3.1074,3.9L35.45,164.519a6.293,6.293,0,0,0,8.1084-1.8281l17.13-22.7456a6.2217,6.2217,0,0,0-.041-7.83l-.0781-.1035L45.1684,109.7124a5.9484,5.9484,0,0,0-1.7373-1.4521l-4.8628-2.6851L54.7827,76.2007a6.5161,6.5161,0,0,0-11.419-6.2725L14.7456,121.7505-.8335,108.3237a7.744,7.744,0,0,0-.8609-.6245,4.4145,4.4145,0,0,0-3.333-.3281Z"/></g></g></g></g></svg>