<svg id="Layer_1" data-name="Layer 1" xmlns="http://www.w3.org/2000/svg" xmlns:xlink="http://www.w3.org/1999/xlink" viewBox="0 0 157.9829 157.9829"><defs><style>.cls-1{fill:none;}.cls-2{clip-path:url(#clip-path);}.cls-3{fill:#fff;}.cls-4{fill:#ff97c4;}</style><clipPath id="clip-path"><rect class="cls-1" width="157.9829" height="157.9829"/></clipPath></defs><title>aikataulu3_1</title><g class="cls-2"><g id="Group_9" data-name="Group 9"><g id="Ellipse_1-2" data-name="Ellipse 1-2"><circle class="cls-3" cx="65.1984" cy="58.4233" r="45.1078"/><path class="cls-4" d="M65.1984,105.0312a46.6079,46.6079,0,1,1,46.6079-46.6079A46.6607,46.6607,0,0,1,65.1984,105.0312Zm0-90.2158a43.6079,43.6079,0,1,0,43.6079,43.6079A43.6574,43.6574,0,0,0,65.1984,14.8154Z"/></g><g id="Path_16-2" data-name="Path 16-2"><path class="cls-3" d="M65.1418,2.039a56.3842,56.3842,0,1,0,.1132,0Zm.0566,101.4862A45.0959,45.0959,0,0,1,20.0905,58.4416v-.0241A45.0958,45.0958,0,0,1,65.174,13.31H65.2a45.0937,45.0937,0,0,1,45.1078,45.08v.0281a45.0938,45.0938,0,0,1-45.0795,45.108h-.03Z"/><path class="cls-4" d="M65.1974,116.3076A57.8843,57.8843,0,0,1,65.14.5391h.1147a57.8843,57.8843,0,0,1,.0015,115.7685ZM65.1432,3.5391a54.8843,54.8843,0,0,0,.0542,109.7685h.0562a54.8843,54.8843,0,0,0,0-109.7685Zm.0435,101.4863A46.6079,46.6079,0,0,1,65.1735,11.81h.0151a46.6079,46.6079,0,0,1,.0406,93.2158h-.0425ZM65.215,14.81h-.0142a43.6079,43.6079,0,0,0-.0141,87.2158h.04A43.6079,43.6079,0,0,0,65.215,14.81Z"/></g><g id="Path_17-2" data-name="Path 17-2"><path class="cls-3" d="M68.017,30.2312H59.5592V64.0625L89.1616,81.8176l4.237-6.9346L68.0251,59.8275Z"/><path class="cls-4" d="M89.16,83.3174a1.4917,1.4917,0,0,1-.77-.2139L58.7878,65.3486a1.4991,1.4991,0,0,1-.7286-1.2861V30.231a1.5,1.5,0,0,1,1.5-1.5h8.4576a1.5,1.5,0,0,1,1.5,1.4995l.0083,28.7426,24.6391,14.62a1.5005,1.5005,0,0,1,.5142,2.0722L90.4416,82.6A1.4982,1.4982,0,0,1,89.16,83.3174ZM61.0592,63.2129,88.6574,79.7656l2.6689-4.3681-24.0669-14.28a1.5,1.5,0,0,1-.7343-1.29L66.5173,31.731H61.0592Z"/></g></g><path class="cls-3" d="M112.5218,118.5453s-.01-14.2067,0-18.9422a22.0078,22.0078,0,0,0-2.7821-11.28c-2.7864-4.8077-6.3791-7.748-11.3262-7.7151-13.8983.0927-27.7972.0321-41.6959.0328a8.75,8.75,0,0,0-1.317.0222c-2.9663.4525-6.6924,3.6385-5.3565,9.2729a5.799,5.799,0,0,0,5.6805,4.7493q16.1153.0115,32.2305.0063c1.4741.0007,1.5677.2122,1.5811,1.9695.0124,1.6227-.8245,1.4355-1.626,1.4355q-24.0831-.0008-48.1661,0H32.7948q-20.5484,0-41.0968.0108a6.9281,6.9281,0,0,0-6.1868,3.652c-1.903,3.184-1.8974,8.5694-.571,12.0314,1.1995,3.1308,3.4515,4.0571,6.0952,4.0518q28.0968-.0561,56.1937-.02c.3993,0,.7987.01,1.198.012v1.4213c-.3993.0021-.7987.012-1.198.012q-28.0968,0-56.1937-.02c-2.6437-.0053-4.8957.921-6.0952,4.0519-1.3264,3.462-1.332,8.8473.571,12.0314a6.928,6.928,0,0,0,6.1868,3.6519q20.5484.0315,41.0968.0108,3.4747,0,6.9493,0,24.0831.0009,48.1661,0c.8015,0,1.6384-.1871,1.626,1.4355-.0134,1.7573-.107,1.9688-1.5811,1.97q-16.1152.0081-32.23.0062a5.799,5.799,0,0,0-5.6805,4.7494c-1.3359,5.6344,2.39,8.82,5.3565,9.2728a8.7633,8.7633,0,0,0,1.317.0223c13.8987.0006,27.7976-.06,41.6959.0327,4.9471.033,8.54-2.9073,11.3262-7.7151a22.0077,22.0077,0,0,0,2.7821-11.28c-.01-4.7356,0-18.9423,0-18.9423"/><path class="cls-4" d="M98.4985,157.9829l-.0947,0c-9.9355-.0669-20.041-.0547-29.812-.042q-5.937.0066-11.874.0093l-.3335.0064a6.6674,6.6674,0,0,1-1.211-.0459,8.236,8.236,0,0,1-5.4511-3.5415,9.2513,9.2513,0,0,1-1.1377-7.56,7.2718,7.2718,0,0,1,7.1391-5.9033q8.7906-.0059,17.5811-.0039l14.6494-.0025c.0259,0,.05,0,.0742,0,.0044-.1474.0064-.2978.0073-.4062l-.1254.0019-55.1153,0-10.1533.0014q-15.4731.0015-30.9463-.0122a8.3993,8.3993,0,0,1-7.4717-4.3823c-2.2929-3.8374-2.0639-9.7359-.6845-13.3374a7.3746,7.3746,0,0,1,3.6381-4.2178,7.3729,7.3729,0,0,1-3.6381-4.2178c-1.3794-3.6015-1.6084-9.5.6845-13.3374a8.3977,8.3977,0,0,1,7.4722-4.3823q15.4731-.0234,30.9458-.0122l10.1533.0015L87.91,96.5967l.1254.0019c-.0009-.1084-.0029-.2588-.0073-.4062-.0234-.0005-.0478-.0005-.0737-.0005L72.9512,96.19q-8.6089,0-17.2276-.004a7.2722,7.2722,0,0,1-7.1391-5.9033,9.2523,9.2523,0,0,1,1.1372-7.5595A8.2384,8.2384,0,0,1,55.1743,79.18a6.5917,6.5917,0,0,1,1.209-.0454l.3345.0063c3.9863-.0127,7.98.0049,11.9692.0093,9.7417.0107,19.8135.0244,29.7168-.042l.0962-.0005c5.1357,0,9.2373,2.7691,12.5376,8.4629A23.5775,23.5775,0,0,1,114.022,99.606c-.01,4.7343,0,18.9384,0,18.9384v.002s-.01,14.2036,0,18.938a23.5748,23.5748,0,0,1-2.9844,12.0351C107.7378,155.2129,103.6348,157.9829,98.4985,157.9829ZM80.231,154.9307c6.0507,0,12.1513.0112,18.1928.0517l.0728,0c4.03,0,7.1914-2.2163,9.9453-6.9678a20.6221,20.6221,0,0,0,2.58-10.5244c-.01-4.7124,0-18.8027,0-18.9453s-.01-14.2334,0-18.9458a20.63,20.63,0,0,0-2.58-10.5244c-2.771-4.78-5.9932-6.978-10.0181-6.9668-9.916.0654-19.9926.0532-29.7407.042-3.9888-.0044-7.9683-.021-11.9653-.0093-.14,0-.28-.0039-.42-.0078a4.2055,4.2055,0,0,0-.6719.0127A5.25,5.25,0,0,0,52.209,84.4a6.4252,6.4252,0,0,0-.7056,5.19,4.3079,4.3079,0,0,0,4.2222,3.5957q8.6133.006,17.2256.004l15.0049.0024c2.8242.001,3.0659,1.5664,3.08,3.458a2.9963,2.9963,0,0,1-.771,2.2739A2.7888,2.7888,0,0,1,88.104,99.6l-.1938-.0029-65.2691-.001Q7.168,99.5935-8.3,99.6079a5.4684,5.4684,0,0,0-4.9014,2.9214c-1.7187,2.8765-1.5761,7.8066-.458,10.7251.8316,2.17,2.26,3.0727,4.6919,3.0884q21.6146-.0425,43.229-.022l14.1729.0137a1.5,1.5,0,0,1,1.4926,1.5v1.4214a1.5,1.5,0,0,1-1.4907,1.5l-1.2075.0122L33.85,120.77q-21.408.0058-42.8174-.0224h-.02c-2.4448,0-3.8428.9248-4.6719,3.0888-1.1181,2.9185-1.2607,7.8487.458,10.7251A5.47,5.47,0,0,0-8.3,137.4829q15.4695.0234,30.9409.0122l17.103-.0014,48.1661,0,.1943-.0029a2.7871,2.7871,0,0,1,2.1606.6753,2.9963,2.9963,0,0,1,.771,2.2739c-.0141,1.8916-.2558,3.4575-3.0805,3.4585l-14.6509.0025q-8.7906.0008-17.5791.0039a4.3072,4.3072,0,0,0-4.2222,3.5952,6.4257,6.4257,0,0,0,.7056,5.19,5.25,5.25,0,0,0,3.4175,2.2534,4.03,4.03,0,0,0,.6723.0132c.1963-.0058.3926-.0078.5884-.0078q5.8506,0,11.7012-.0093C72.4272,154.9355,76.3193,154.9307,80.231,154.9307Z"/><path class="cls-3" d="M134.511,96.9384a21.8364,21.8364,0,0,0-21.9827,21.6069,22.1312,22.1312,0,0,0,21.9,22.327,21.967,21.967,0,1,0,.0824-43.9339Z"/><path class="cls-4" d="M134.3545,142.3721a23.0237,23.0237,0,0,1-16.5449-7.06,23.3991,23.3991,0,0,1,16.6943-39.874h.0078a23.1456,23.1456,0,0,1,23.4712,23.3022,23.3926,23.3926,0,0,1-23.5493,23.6314Zm.1494-43.9336a20.3992,20.3992,0,0,0-14.5508,34.7754,20.446,20.446,0,1,0,14.5576-34.7754Z"/><line class="cls-3" x1="133.1124" y1="106.7006" x2="140.4356" y2="114.0238"/><path class="cls-4" d="M140.4355,115.5239a1.4955,1.4955,0,0,1-1.06-.4394l-7.3232-7.3233a1.5,1.5,0,1,1,2.1211-2.1211l7.3232,7.3233a1.5,1.5,0,0,1-1.0606,2.5605Z"/><line class="cls-3" x1="140.4356" y1="106.7006" x2="133.1124" y2="114.0238"/><path class="cls-4" d="M133.1123,115.5239a1.5,1.5,0,0,1-1.0605-2.5605l7.3232-7.3233a1.5,1.5,0,1,1,2.1211,2.1211l-7.3232,7.3233A1.4955,1.4955,0,0,1,133.1123,115.5239Z"/><line class="cls-3" x1="133.1124" y1="120.0505" x2="140.4356" y2="127.3737"/><path class="cls-4" d="M140.4355,128.8735a1.4951,1.4951,0,0,1-1.06-.4394l-7.3232-7.3233a1.5,1.5,0,0,1,2.1211-2.1211l7.3232,7.3233a1.5,1.5,0,0,1-1.0606,2.5605Z"/><line class="cls-3" x1="140.4356" y1="120.0505" x2="133.1124" y2="127.3737"/><path class="cls-4" d="M133.1123,128.8735a1.5,1.5,0,0,1-1.0605-2.5605l7.3232-7.3233a1.5,1.5,0,0,1,2.1211,2.1211l-7.3232,7.3233A1.4951,1.4951,0,0,1,133.1123,128.8735Z"/><rect class="cls-1" x="-17.5011" y="0.5391" width="175.484" height="157.4438"/></g></svg>