<?xml version="1.0" encoding="utf-8"?>
<!-- Generator: Adobe Illustrator 22.0.1, SVG Export Plug-In . SVG Version: 6.00 Build 0)  -->
<svg version="1.1" id="Layer_1" xmlns="http://www.w3.org/2000/svg" xmlns:xlink="http://www.w3.org/1999/xlink" x="0px" y="0px"
	 viewBox="0 0 1083 300" style="enable-background:new 0 0 1083 300;" xml:space="preserve">
<style type="text/css">
	.st0{fill:#343F68;}
</style>
<path class="st0" d="M642.5,70c-44.1,0-80,35.9-80,80s35.9,80,80,80s80-35.9,80-80S686.6,70,642.5,70z M642.5,198
	c-26.5,0-48-21.5-48-48s21.5-48,48-48s48,21.5,48,48S669,198,642.5,198z M318.5,70c-44.1,0-80,35.9-80,80s35.9,80,80,80
	s80-35.9,80-80S362.6,70,318.5,70z M318.5,198c-26.5,0-48-21.5-48-48s21.5-48,48-48s48,21.5,48,48S345,198,318.5,198z M430.5,225.2
	h32V166h70.2v-32h-70.2v-27.2h72v-32h-104V225.2z M1014.5,106.8v-32h-104v150.4h104v-32h-72V166h68.8v-32h-68.8v-27.2H1014.5z
	 M874.5,130.4c-0.2-30.6-25.6-55.6-56.5-55.6h-63.5v150.4h32v-38.4h26.6l23.2,38.4h37.4l-27.6-45.7c4.4-2.5,8.5-5.6,12.1-9.3
	C868.8,159.6,874.6,145.4,874.5,130.4z M835.5,147.7c-4.5,4.6-10.6,7.1-17,7.1h-32v-48H818c13.4,0,24.4,10.7,24.5,23.8
	C842.5,137.1,840.1,143.1,835.5,147.7z M185.9,172.8h-4.8v12.4c-8.9,8.3-20.4,12.8-32.6,12.8c-12.8,0-24.9-5-33.9-14.1
	c-9.1-9-14.1-21.1-14.1-33.9s5-24.9,14.1-33.9c9-9.1,21.1-14.1,33.9-14.1s24.9,5,33.9,14.1L205,93.5C190,78.3,169.9,70,148.5,70
	S107,78.3,91.9,93.4S68.5,128.6,68.5,150s8.3,41.5,23.4,56.6s35.2,23.4,56.6,23.4s41.5-8.3,56.6-23.4c1.9-1.9,3.7-4,5.4-6.1
	C209.7,190.7,205.6,172.8,185.9,172.8z M181.6,132.6h-38.5v31.8H186c12.1,0,21.5,5.4,27.2,15v-11c0-10.3-2.6-18.7-7.8-25
	C199.6,136.4,191.1,132.6,181.6,132.6z"/>
</svg>
