<svg id="Layer_1" data-name="Layer 1" xmlns="http://www.w3.org/2000/svg" xmlns:xlink="http://www.w3.org/1999/xlink" viewBox="0 0 125.4961 156.8496"><defs><style>.cls-1{fill:none;}.cls-2{clip-path:url(#clip-path);}.cls-3{clip-path:url(#clip-path-2);}.cls-4{fill:#fff;}.cls-5{fill:#ff97c4;}</style><clipPath id="clip-path"><rect class="cls-1" y="-0.5667" width="125.4961" height="157.4163"/></clipPath><clipPath id="clip-path-2"><rect class="cls-1" x="-15.0771" y="-0.0276" width="140.5732" height="156.8772"/></clipPath></defs><title>aikataulu2_1</title><g class="cls-2"><g class="cls-3"><g id="Group_9" data-name="Group 9"><g id="Ellipse_1-2" data-name="Ellipse 1-2"><circle class="cls-4" cx="67.6117" cy="58.8871" r="45.1078"/><path class="cls-5" d="M67.6119,105.4951a46.6079,46.6079,0,1,1,46.6074-46.6079A46.6607,46.6607,0,0,1,67.6119,105.4951Zm0-90.2158a43.6079,43.6079,0,1,0,43.6074,43.6079A43.6574,43.6574,0,0,0,67.6119,15.2793Z"/></g><g id="Path_16-2" data-name="Path 16-2"><path class="cls-4" d="M67.5552,2.5028a56.3842,56.3842,0,1,0,.1131,0Zm.0565,101.4861A45.0956,45.0956,0,0,1,22.5039,58.9054v-.0241a45.0957,45.0957,0,0,1,45.0835-45.108h.0263a45.0935,45.0935,0,0,1,45.1078,45.08v.0281a45.0937,45.0937,0,0,1-45.08,45.1079h-.03Z"/><path class="cls-5" d="M67.61,116.7715A57.8843,57.8843,0,0,1,67.5538,1.0029h.1147a57.8843,57.8843,0,0,1,.001,115.7686ZM67.5567,4.0029a54.8844,54.8844,0,0,0-38.7153,93.732A54.528,54.528,0,0,0,67.61,113.7715h.0567A54.8843,54.8843,0,0,0,67.6675,4.0029Zm.0425,101.4859a46.6077,46.6077,0,0,1-.0122-93.2154h.0151a46.6077,46.6077,0,0,1,.0405,93.2154h-.0434Zm.0293-90.2154h-.0142a43.6077,43.6077,0,0,0-.0151,87.2154h.041A43.6132,43.6132,0,0,0,98.4434,28.0322,43.3084,43.3084,0,0,0,67.6285,15.2734Z"/></g><g id="Path_17-2" data-name="Path 17-2"><path class="cls-4" d="M70.43,30.695H61.9725V64.5262L91.5749,82.2814l4.237-6.9346L70.4384,60.2913Z"/><path class="cls-5" d="M91.5733,83.7812a1.4915,1.4915,0,0,1-.77-.2138L61.2012,65.8125a1.4994,1.4994,0,0,1-.7285-1.2861V30.6948a1.5,1.5,0,0,1,1.5-1.5H70.43a1.5,1.5,0,0,1,1.5,1.4995l.0083,28.7427,24.6392,14.62a1.5008,1.5008,0,0,1,.5141,2.0723l-4.2373,6.9346A1.4984,1.4984,0,0,1,91.5733,83.7812ZM63.4727,63.6768,91.07,80.23,93.74,75.8613l-24.0669-14.28a1.5,1.5,0,0,1-.7344-1.2895l-.0078-28.0972h-5.458Z"/></g></g><g id="Path_21" data-name="Path 21"><path class="cls-4" d="M44.9009,155.35H8.0833v-7.985H22.3022V122.12L-11.323,79.0769l-2.5718-3.292,4.1774.0323,36.012.2793,36.0121-.2793,4.1774-.0323-2.5718,3.292L30.2871,122.12v25.245H44.9009v7.985Z"/><path class="cls-5" d="M44.9009,156.85H8.0835a1.5,1.5,0,0,1-1.5-1.5v-7.9849a1.5,1.5,0,0,1,1.5-1.5H20.8023V122.6362L-15.0771,76.7085a1.5,1.5,0,0,1-.1636-1.5859,1.5112,1.5112,0,0,1,1.3574-.8374l40.19.3115,40.166-.3115a1.5408,1.5408,0,0,1,1.3574.8374,1.5,1.5,0,0,1-.1635,1.5859L31.7872,122.6362v23.2285H44.9009a1.5,1.5,0,0,1,1.5,1.5V155.35A1.5,1.5,0,0,1,44.9009,156.85Zm-35.3174-3H43.4009v-4.9849H30.2872a1.5,1.5,0,0,1-1.5-1.5V122.12a1.5,1.5,0,0,1,.3178-.9233L63.39,77.3091l-37.0835.2876-37.1069-.2876,34.2851,43.8872a1.5,1.5,0,0,1,.3179.9233v25.2451a1.5,1.5,0,0,1-1.5,1.5H9.5835Z"/></g></g></g></svg>