<svg id="Layer_1" data-name="Layer 1" xmlns="http://www.w3.org/2000/svg" xmlns:xlink="http://www.w3.org/1999/xlink" viewBox="0 0 142.8914 168.4107"><defs><style>.cls-1{fill:none;}.cls-2{clip-path:url(#clip-path);}.cls-3{clip-path:url(#clip-path-2);}.cls-4{fill:#ff97c4;}.cls-5{fill:#e4ff30;}</style><clipPath id="clip-path"><rect class="cls-1" width="142.8914" height="168.3496"/></clipPath><clipPath id="clip-path-2"><rect class="cls-1" x="-56.6774" width="199.5688" height="168.3496"/></clipPath></defs><title>yleisinfo_1</title><g class="cls-2"><g class="cls-3"><g id="Path_8" data-name="Path 8"><path class="cls-4" d="M141.3916,48.1679c-.4036,2.2194-.7587,4.4549-1.2449,6.6581A43.5762,43.5762,0,1,1,89.3188,2.3069q.38-.0757.7608-.1447a43.6835,43.6835,0,0,1,50.5852,35.4629q.11.6273.2022,1.2578c.1473,1.0088.347,2.0176.5225,3.0264Z"/><path class="cls-5" d="M97.5521,90.0845A45.04,45.04,0,0,1,89.0252.8355c.2632-.0522.5249-.1021.7876-.1494a45.243,45.243,0,0,1,52.33,36.6792q.1135.65.209,1.3c.0976.6709.22,1.3413.3413,2.0122l.1968,1.2309.0019,6.3941-.0244.1333c-.1089.6011-.2143,1.2026-.32,1.8052-.2822,1.6084-.5742,3.2719-.9351,4.9082a45.15,45.15,0,0,1-39.36,34.6933A45.9852,45.9852,0,0,1,97.5521,90.0845ZM97.661,2.9986a42.2351,42.2351,0,0,0-7.3218.6411c-.2383.043-.4834.09-.7285.1382a42.0415,42.0415,0,1,0,49.0752,50.7085c.3432-1.5557.6294-3.1865.9062-4.7637q.1479-.8453.2993-1.6894l-.0019-5.9908-.1485-.8291c-.1279-.7046-.2553-1.4092-.3584-2.1137q-.0885-.6095-.1953-1.2159A42.2535,42.2535,0,0,0,97.661,2.9986Z"/></g><g id="Path_9" data-name="Path 9"><path class="cls-4" d="M1.1425,89.4665l8.3388,24.518,6.3676-12.824a8.9949,8.9949,0,0,1-3.442-7.116c-.23-2.8751.8192-4.338,3.6579-4.7274a19.072,19.072,0,0,1,5.2075.0383,3.5528,3.5528,0,0,1,3.3916,4.1987,9.3553,9.3553,0,0,1-3.444,7.6226l6.0529,12.2065.49.0424L35.9283,89.46c6,2.3,11.8292,4.4387,17.5875,6.7651,6.0146,2.4211,8.6757,6.931,8.6757,13.4837l-.0383,10.2293h-87.044c0-4.78-.19-9.511.0606-14.2162a9.9206,9.9206,0,0,1,5.73-8.0866,49.5007,49.5007,0,0,1,6.1941-2.8C-8.34,93.0356-3.728,91.3186,1.1425,89.4665Z"/><path class="cls-5" d="M63.6473,121.4385H-26.3908v-1.5c0-1.4375-.0171-2.8711-.0342-4.3-.04-3.2758-.08-6.6631.0967-9.9956a11.477,11.477,0,0,1,6.6011-9.37,50.3453,50.3453,0,0,1,6.2988-2.8438c3.3149-1.3071,6.6338-2.562,10.1475-3.8911l5.3427-2.0263,7.6787,22.5771,4.2544-8.5674a10.4116,10.4116,0,0,1-3.0878-7.42c-.273-3.6723,1.3935-5.7817,4.9536-6.27a20.6062,20.6062,0,0,1,5.5473.0283,5.051,5.051,0,0,1,4.76,5.7945,10.9208,10.9208,0,0,1-3.103,7.8667l4.2495,8.57,7.6968-22.5884,1.4545.5571q2.7862,1.0686,5.5269,2.1006c4.1636,1.5752,8.0967,3.063,12.0854,4.6748,6.3785,2.5674,9.6138,7.5718,9.6138,14.874Zm-87.0435-3H60.659l.0327-8.7353c0-6.12-2.458-9.9619-7.7358-12.086-3.96-1.6-7.8775-3.082-12.0249-4.6513q-2.031-.7683-4.0845-1.5489L28.8045,115.02l-2.5005-.2144-6.96-14.0361.9292-.7564a7.8924,7.8924,0,0,0,2.8916-6.4l-.0064-.1665.03-.164a2.1048,2.1048,0,0,0,.0337-.3174,2.0531,2.0531,0,0,0-1.9932-2.11l-.1728-.0151a17.6041,17.6041,0,0,0-4.7984-.0357c-1.9966.2745-2.5273.9747-2.3559,3.1207l.0053.0629,0,.0635a7.4448,7.4448,0,0,0,2.8676,5.9292l.96.7539L9.2215,117.88l-9-26.4609-2.4419.9253c-3.5034,1.3252-6.813,2.5766-10.1357,3.8867A48.2777,48.2777,0,0,0-18.39,98.9571a8.4919,8.4919,0,0,0-4.9468,6.9053c-.1675,3.1748-.1274,6.5122-.0889,9.74C-23.4142,116.5459-23.4025,117.4913-23.3962,118.4385Z"/></g><g id="Path_10" data-name="Path 10"><path class="cls-4" d="M-2.6808,50.5749A82.6851,82.6851,0,0,1-2.1441,41.57c1.273-7.6549,5.157-11.0969,12.951-11.791a2.7215,2.7215,0,0,0,1.9209-1.152,5.9279,5.9279,0,0,1,3.5469-1.8966c10.3726-.4439,24.5,6.1053,23.3378,21.8831-.0424.577,0,1.1581,0,1.721,3.9243,1.5192,4.2088,1.9752,3.43,6.3635a11.7987,11.7987,0,0,1-1.2731,4.237,7.7387,7.7387,0,0,1-3.2625,2.7137c-.9342.4177-1.4285.7465-1.6706,1.7392A23.233,23.233,0,0,1,23.8631,81.2668a11.4579,11.4579,0,0,1-10.5158.0686A23.3238,23.3238,0,0,1,.255,65.5436a2.27,2.27,0,0,0-1.7614-1.9168,4.9107,4.9107,0,0,1-2.94-2.2194A30.2625,30.2625,0,0,1-6.2619,53.93C-6.5163,51.6281-4.7369,50.7424-2.6808,50.5749Z"/><path class="cls-5" d="M18.5574,84.0806a13.0011,13.0011,0,0,1-5.89-1.4082A24.6188,24.6188,0,0,1-1.2028,65.8956l-.0288-.1539a.7723.7723,0,0,0-.5972-.65,6.4115,6.4115,0,0,1-3.9038-2.914l-.1143-.2339a31.7881,31.7881,0,0,1-1.9057-7.8477,4.1684,4.1684,0,0,1,.8672-3.2182,4.9861,4.9861,0,0,1,2.7207-1.5811c.0532-2.6347.2309-5.2856.53-7.8969C-2.25,33.0645,2.159,29.0435,10.6741,28.2852a1.2064,1.2064,0,0,0,.8213-.5132l.1182-.1489a7.4471,7.4471,0,0,1,4.4443-2.377l.1529-.0141c5.7143-.2451,13.8046,1.5464,19.3891,7.3047a20.3929,20.3929,0,0,1,5.5088,16.1875c-.0146.1972-.0171.395-.0146.5918,3.7392,1.5913,4.2509,2.9585,3.4345,7.5918a13.2361,13.2361,0,0,1-1.4292,4.7207l-.0913.1528a9.2359,9.2359,0,0,1-3.8945,3.24c-.7227.3228-.7354.376-.82.7227A24.88,24.88,0,0,1,24.4866,82.6309,12.7464,12.7464,0,0,1,18.5574,84.0806ZM1.7293,65.2569A21.6787,21.6787,0,0,0,13.9637,79.9678a10.0136,10.0136,0,0,0,9.2021-.0293,21.9184,21.9184,0,0,0,12.209-14.8891,3.8128,3.8128,0,0,1,2.52-2.77,6.2341,6.2341,0,0,0,2.5855-2.1186A10.2362,10.2362,0,0,0,41.55,56.5435l.0152-.1074c.6206-3.4966.6206-3.4966-2.4942-4.7022l-.9585-.3711V50.335c0-.1743-.0044-.35-.0088-.5273-.0107-.4317-.019-.8687.0127-1.3037.4116-5.5889-1.16-10.2583-4.67-13.8789-4.0141-4.1387-10.6714-6.6451-17.0264-6.4a4.4439,4.4439,0,0,0-2.5249,1.3487,4.2249,4.2249,0,0,1-2.9135,1.6948C3.7445,31.9141.4905,34.87-.6647,41.8165a81.7546,81.7546,0,0,0-.5161,8.7656l-.0069,1.376-1.3716.1118a3.03,3.03,0,0,0-2.0117.7173,1.1829,1.1829,0,0,0-.2.9785,28.8,28.8,0,0,0,1.6758,6.9736,3.3946,3.3946,0,0,0,1.978,1.439A3.7559,3.7559,0,0,1,1.7293,65.2569Z"/></g><g id="Path_11" data-name="Path 11"><path class="cls-4" d="M91.5383,44.964c-1.5112,0-2.6794-.01-3.8456,0-1.9087.0221-2.4211-1.0936-2.4049-2.7783.0161-2.47.4478-3.2524,2.2779-3.2766q6.8254-.0847,13.6511,0A2.46,2.46,0,0,1,103.84,41.653q.03,12.7736,0,25.547c0,1.7856-1.0088,2.6895-2.8469,2.73-2.0176.0444-4.0352.0141-6.0528,0-2.5786-.0141-3.4017-.807-3.4057-3.3492q-.02-9.6543,0-19.3066Z"/><path class="cls-5" d="M98.6312,71.4532c-.8853,0-1.7657-.0078-2.63-.0152L94.929,71.43c-3.4248-.019-4.8891-1.4682-4.8945-4.8466q-.0206-9.6562,0-19.3125l.0015-.8091c-.8384-.002-1.585-.0044-2.33.0024a3.8951,3.8951,0,0,1-2.84-1.0058,4.3567,4.3567,0,0,1-1.0781-3.2867c.0108-1.6445.0308-4.7133,3.7583-4.7622,4.522-.0566,9.1079-.0561,13.6318,0a3.9568,3.9568,0,0,1,4.1617,4.32q.03,12.7375,0,25.4746c0,2.5859-1.6128,4.167-4.314,4.2255C100.2288,71.4468,99.428,71.4532,98.6312,71.4532ZM88.8743,43.46c.38,0,.771.001,1.1841.002l2.9824.0024-.0063,3.8125q-.0206,9.65,0,19.3008c.0024,1.7046.1455,1.8428,1.9136,1.8525l1.0781.0088c1.62.0132,3.2969.0279,4.9336-.0083,1.2807-.0278,1.38-.5273,1.38-1.23q.03-12.7755,0-25.5439l.01-.18a.9239.9239,0,0,0,.0044-.1836.9553.9553,0,0,0-1.0273-.8872l-.0645.0044-.0644-.0005c-4.5171-.0566-9.0977-.0566-13.6138,0a1.5329,1.5329,0,0,0-.6221.0821,4.8353,4.8353,0,0,0-.1743,1.7041c-.0088.9072.1763,1.1181.1973,1.1391a1.0618,1.0618,0,0,0,.69.1294C88.0711,43.4605,88.4666,43.46,88.8743,43.46Z"/></g><g id="Path_12" data-name="Path 12"><path class="cls-4" d="M97.682,32.4588a6.14,6.14,0,1,1,6.1477-6.0246A6.2547,6.2547,0,0,1,97.682,32.4588Z"/><path class="cls-5" d="M97.6766,33.9585l-.0249,0A7.6393,7.6393,0,0,1,97.6805,18.68a7.6394,7.6394,0,0,1,.021,15.2788ZM97.67,21.6792a4.7142,4.7142,0,0,0-4.6167,4.5743A4.6389,4.6389,0,1,0,97.67,21.6792Z"/></g><rect class="cls-4" x="-55.1772" y="130.5935" width="141.2331" height="36.3171" rx="8.5992"/><path class="cls-5" d="M77.4569,168.4107H-46.5778a10.1107,10.1107,0,0,1-10.1-10.0991V139.1929a10.1112,10.1112,0,0,1,10.1-10.1H77.4569a10.1108,10.1108,0,0,1,10.0991,10.1v19.1187A10.11,10.11,0,0,1,77.4569,168.4107ZM-46.5778,132.0933a7.1079,7.1079,0,0,0-7.1,7.1v19.1187a7.1074,7.1074,0,0,0,7.1,7.0991H77.4569a7.1071,7.1071,0,0,0,7.0991-7.0991V139.1929a7.1075,7.1075,0,0,0-7.0991-7.1Z"/></g></g></svg>